HIERARCHY
ROOT Hips
{
	OFFSET 0.000000 0.000000 0.000000
	CHANNELS 6 Xposition Yposition Zposition Xrotation Yrotation Zrotation
	JOINT LeftUpLeg_virtual
	{
		OFFSET 0.000000 0.000000 0.000000
		CHANNELS 3 Xrotation Yrotation Zrotation
		JOINT LeftUpLeg
		{
			OFFSET 11.394100 -6.187798 -0.413800
			CHANNELS 3 Xrotation Yrotation Zrotation
			JOINT LeftLeg
			{
				OFFSET 0.430247 -32.302673 3.732800
				CHANNELS 3 Xrotation Yrotation Zrotation
				JOINT LeftFoot
				{
					OFFSET -0.430247 -48.264931 -6.423300
					CHANNELS 3 Xrotation Yrotation Zrotation
					JOINT LeftToeBase
					{
						OFFSET 4.230900 -16.068199 23.438400
						CHANNELS 3 Xrotation Yrotation Zrotation
						JOINT LeftToe_End
						{
							OFFSET 4.510700 0.695400 19.974600
							CHANNELS 3 Xrotation Yrotation Zrotation
							End Site
							{
								OFFSET 0 0 0
							}
						}
					}
				}
			}
		}
	}
	JOINT RightUpLeg_virtual
	{
		OFFSET 0.000000 0.000000 0.000000
		CHANNELS 3 Xrotation Yrotation Zrotation
		JOINT RightUpLeg
		{
			OFFSET -11.333700 -6.187798 -0.413800
			CHANNELS 3 Xrotation Yrotation Zrotation
			JOINT RightLeg
			{
				OFFSET -0.430392 -32.302628 3.733000
				CHANNELS 3 Xrotation Yrotation Zrotation
				JOINT RightFoot
				{
					OFFSET 0.430392 -48.264973 -6.423500
					CHANNELS 3 Xrotation Yrotation Zrotation
					JOINT RightToeBase
					{
						OFFSET -4.230900 -16.068199 23.438400
						CHANNELS 3 Xrotation Yrotation Zrotation
						JOINT RightToe_End
						{
							OFFSET -4.510700 0.695400 19.974600
							CHANNELS 3 Xrotation Yrotation Zrotation
							End Site
							{
								OFFSET 0 0 0
							}
						}
					}
				}
			}
		}
	}
	JOINT Spine_virtual
	{
		OFFSET 0.000000 0.000000 0.000000
		CHANNELS 3 Xrotation Yrotation Zrotation
		JOINT Spine
		{
			OFFSET -0.002400 12.777504 0.315300
			CHANNELS 3 Xrotation Yrotation Zrotation
			JOINT Spine1
			{
				OFFSET -0.002067 5.816869 0.032633
				CHANNELS 3 Xrotation Yrotation Zrotation
				JOINT Spine1_split
				{
					OFFSET -0.002067 5.816869 0.032633
					CHANNELS 3 Xrotation Yrotation Zrotation
					JOINT Spine2
					{
						OFFSET -0.002067 5.816869 0.032633
						CHANNELS 3 Xrotation Yrotation Zrotation
						JOINT Neck_virtual
						{
							OFFSET 0.000000 0.000000 0.000000
							CHANNELS 3 Xrotation Yrotation Zrotation
							JOINT Neck
							{
								OFFSET -0.003700 21.199493 -0.826900
								CHANNELS 3 Xrotation Yrotation Zrotation
								JOINT Head
								{
									OFFSET 0.000000 20.442200 4.834800
									CHANNELS 3 Xrotation Yrotation Zrotation
									JOINT HeadTop_End
									{
										OFFSET 0.000000 34.668396 4.968400
										CHANNELS 3 Xrotation Yrotation Zrotation
										End Site
										{
											OFFSET 0 0 0
										}
									}
								}
							}
						}
						JOINT LeftShoulder_virtual
						{
							OFFSET 0.000000 0.000000 0.000000
							CHANNELS 3 Xrotation Yrotation Zrotation
							JOINT LeftShoulder
							{
								OFFSET 3.288150 8.794197 -1.372250
								CHANNELS 3 Xrotation Yrotation Zrotation
								JOINT LeftShoulder_split
								{
									OFFSET 3.288150 8.794197 -1.372250
									CHANNELS 3 Xrotation Yrotation Zrotation
									JOINT LeftArm
									{
										OFFSET 11.953299 -2.279007 -0.146200
										CHANNELS 3 Xrotation Yrotation Zrotation
										JOINT LeftForeArm
										{
											OFFSET 18.448900 0.000000 0.000000
											CHANNELS 3 Xrotation Yrotation Zrotation
											JOINT LeftHand
											{
												OFFSET 29.527798 0.000000 0.000000
												CHANNELS 3 Xrotation Yrotation Zrotation
												End Site
												{
													OFFSET 0 0 0
												}
											}
										}
									}
								}
							}
						}
						JOINT RightShoulder_virtual
						{
							OFFSET 0.000000 0.000000 0.000000
							CHANNELS 3 Xrotation Yrotation Zrotation
							JOINT RightShoulder
							{
								OFFSET -3.249400 8.794197 -1.372250
								CHANNELS 3 Xrotation Yrotation Zrotation
								JOINT RightShoulder_split
								{
									OFFSET -3.249400 8.794197 -1.372250
									CHANNELS 3 Xrotation Yrotation Zrotation
									JOINT RightArm
									{
										OFFSET -11.953299 -2.279007 -0.146200
										CHANNELS 3 Xrotation Yrotation Zrotation
										JOINT RightForeArm
										{
											OFFSET -18.448900 0.000000 0.000000
											CHANNELS 3 Xrotation Yrotation Zrotation
											JOINT RightHand
											{
												OFFSET -29.527802 0.000000 0.000000
												CHANNELS 3 Xrotation Yrotation Zrotation
												End Site
												{
													OFFSET 0 0 0
												}
											}
										}
									}
								}
							}
						}
					}
				}
			}
		}
	}
}
MOTION
Frames: 4
Frame Time: 0.03333333
0.180326 82.211182 -0.203129 0.000000 0.000000 0.000000 -4.308692 -74.787867 -3.263332 -43.507984 9.999447 50.467202 38.710353 -0.147223 -6.997396 11.913452 -2.477706 -21.766508 -0.022462 -0.002756 -0.055903 0.000000 0.000000 0.000000 -4.308692 -74.787867 -3.263332 -45.723219 2.144172 -24.447455 60.252855 8.290938 -7.184836 -12.023326 -3.892838 22.431149 -0.005268 -0.000128 -0.000158 0.000000 0.000000 0.000000 -4.308692 -74.787867 -3.263332 2.952972 -0.411887 -1.589126 5.893830 -0.904739 -3.151096 0.000000 0.000000 0.000000 0.000000 0.000000 0.000000 5.893812 -0.904582 -3.151110 -2.451540 24.309791 7.456974 0.154239 27.772029 -8.534003 0.000000 0.000000 0.000000 5.893812 -0.904582 -3.151110 0.279790 -7.010249 -19.556604 0.000000 0.000000 0.000000 -39.504052 -20.309110 -2.427270 -5.614212 -32.071553 -2.800592 0.000000 0.000000 0.000000 5.893812 -0.904582 -3.151110 0.636242 13.855907 9.110360 0.000000 0.000000 0.000000 35.455259 67.114409 -18.850882 0.649734 83.885282 -11.767060 0.000000 0.000000 0.000000 
0.205630 82.415588 -0.203575 0.000000 0.000000 0.000000 -5.305030 -75.214344 -4.261840 -42.553325 10.139198 50.275776 38.299118 0.603423 -6.869028 11.939895 -2.491735 -22.027381 -0.022501 -0.002718 -0.056033 0.000000 0.000000 0.000000 -5.305030 -75.214344 -4.261840 -45.417087 2.037304 -24.290050 59.790827 8.592613 -7.130631 -11.796097 -3.806838 22.238239 -0.005272 -0.000100 -0.000154 0.000000 0.000000 0.000000 -5.305030 -75.214344 -4.261840 2.900381 -0.378971 -1.547747 5.790268 -0.823355 -3.057951 0.000000 0.000000 0.000000 0.000000 0.000000 0.000000 5.790282 -0.823173 -3.058011 -2.569102 24.400586 7.466812 0.176401 27.894281 -8.544354 0.000000 0.000000 0.000000 5.790282 -0.823173 -3.058011 0.268780 -7.020031 -19.607417 0.000000 0.000000 0.000000 -39.486881 -20.023367 -2.512447 -5.275125 -32.657149 -2.924886 0.000000 0.000000 0.000000 5.790282 -0.823173 -3.058011 0.634734 13.830905 9.149997 0.000000 0.000000 0.000000 35.145053 66.734807 -18.516971 1.797640 83.924010 -12.613914 0.000000 0.000000 0.000000 
0.286745 82.945206 -0.258381 0.000000 0.000000 0.000000 -8.605428 -76.490667 -7.569761 -40.398438 11.121390 50.274157 37.026490 1.977989 -6.614302 12.115366 -2.543134 -22.487705 -0.022690 -0.002742 -0.056530 0.000000 0.000000 0.000000 -8.605428 -76.490667 -7.569761 -44.674334 1.778326 -23.779862 58.627666 9.509251 -6.980669 -11.158443 -3.559131 21.636583 -0.005271 -0.000085 -0.000159 0.000000 0.000000 0.000000 -8.605428 -76.490667 -7.569761 2.735408 -0.278408 -1.444786 5.463875 -0.576414 -2.823614 0.000000 0.000000 0.000000 0.000000 0.000000 0.000000 5.463879 -0.576621 -2.823582 -2.878977 24.654572 7.494870 0.243572 28.241661 -8.588790 0.000000 0.000000 0.000000 5.463879 -0.576621 -2.823582 0.178884 -7.112264 -19.959758 0.000000 0.000000 0.000000 -38.090025 -18.526659 -4.022168 -4.376972 -34.383671 -3.671992 0.000000 0.000000 0.000000 5.463879 -0.576621 -2.823582 0.618020 13.645867 9.451066 0.000000 0.000000 0.000000 33.426628 66.007713 -15.519189 3.993640 82.618870 -14.044119 0.000000 0.000000 0.000000 
0.394911 83.610146 -0.387527 0.000000 0.000000 0.000000 -13.561233 -77.898656 -12.529711 -37.765844 12.508372 50.235198 35.173241 3.561958 -6.324047 12.505255 -2.640440 -22.956513 -0.022778 -0.002737 -0.056750 0.000000 0.000000 0.000000 -13.561233 -77.898656 -12.529711 -43.626245 1.568131 -23.099020 56.996487 8.993146 -6.904072 -10.366594 -1.876463 21.401025 -0.005261 -0.000086 -0.000146 0.000000 0.000000 0.000000 -13.561233 -77.898656 -12.529711 2.628362 -0.194749 -1.314821 5.251881 -0.370041 -2.520959 0.000000 0.000000 0.000000 0.000000 0.000000 0.000000 5.251884 -0.369750 -2.520972 -3.341077 25.041032 7.539483 0.367116 28.770686 -8.674014 0.000000 0.000000 0.000000 5.251884 -0.369750 -2.520972 -0.007884 -7.332795 -20.527679 0.000000 0.000000 0.000000 -35.072680 -16.294477 -6.885065 -3.084738 -37.890095 -4.806795 0.000000 0.000000 0.000000 5.251884 -0.369750 -2.520972 0.583425 13.311853 10.010967 0.000000 0.000000 0.000000 29.395908 64.655718 -10.020305 5.849173 80.267461 -14.787453 0.000000 0.000000 0.000000 
